<svg width="1284" height="713" viewBox="0 0 1284 713" fill="none" xmlns="http://www.w3.org/2000/svg">
<mask id="mask0_239_71" style="mask-type:luminance" maskUnits="userSpaceOnUse" x="0" y="0" width="1284" height="713">
<g opacity="0.7">
<path d="M0 0H142.576V142.576H0V0Z" fill="white"/>
<path d="M142.576 0H285.152V142.576H142.576V0Z" fill="white"/>
<path d="M285.152 0H427.728V142.576H285.152V0Z" fill="white"/>
<path d="M427.728 0H570.303V142.576H427.728V0Z" fill="white"/>
<path d="M570.303 0H712.879V142.576H570.303V0Z" fill="white"/>
<path d="M712.879 0H855.455V142.576H712.879V0Z" fill="white"/>
<path d="M855.455 0H998.031V142.576H855.455V0Z" fill="white"/>
<path d="M998.031 0H1140.61V142.576H998.031V0Z" fill="white"/>
<path d="M1140.61 0H1283.18V142.576H1140.61V0Z" fill="white"/>
<path d="M0 142.576H142.576V285.152H0V142.576Z" fill="white"/>
<path d="M142.576 142.576H285.152V285.152H142.576V142.576Z" fill="white"/>
<path d="M285.152 142.576H427.728V285.152H285.152V142.576Z" fill="white"/>
<path d="M427.728 142.576H570.303V285.152H427.728V142.576Z" fill="white"/>
<path d="M570.303 142.576H712.879V285.152H570.303V142.576Z" fill="white"/>
<path d="M712.879 142.576H855.455V285.152H712.879V142.576Z" fill="white"/>
<path d="M855.455 142.576H998.031V285.152H855.455V142.576Z" fill="white"/>
<path d="M998.031 142.576H1140.61V285.152H998.031V142.576Z" fill="white"/>
<path d="M1140.61 142.576H1283.18V285.152H1140.61V142.576Z" fill="white"/>
<path d="M0 285.152H142.576V427.727H0V285.152Z" fill="white"/>
<path d="M142.576 285.152H285.152V427.727H142.576V285.152Z" fill="white"/>
<path d="M285.152 285.152H427.728V427.727H285.152V285.152Z" fill="white"/>
<path d="M427.728 285.152H570.303V427.727H427.728V285.152Z" fill="white"/>
<path d="M570.303 285.152H712.879V427.727H570.303V285.152Z" fill="white"/>
<path d="M712.879 285.152H855.455V427.727H712.879V285.152Z" fill="white"/>
<path d="M855.455 285.152H998.031V427.727H855.455V285.152Z" fill="white"/>
<path d="M998.031 285.152H1140.61V427.727H998.031V285.152Z" fill="white"/>
<path d="M1140.61 285.152H1283.18V427.727H1140.61V285.152Z" fill="white"/>
<path d="M0 427.727H142.576V570.303H0V427.727Z" fill="white"/>
<path d="M142.576 427.727H285.152V570.303H142.576V427.727Z" fill="white"/>
<path d="M285.152 427.727H427.728V570.303H285.152V427.727Z" fill="white"/>
<path d="M427.728 427.727H570.303V570.303H427.728V427.727Z" fill="white"/>
<path d="M570.303 427.727H712.879V570.303H570.303V427.727Z" fill="white"/>
<path d="M712.879 427.727H855.455V570.303H712.879V427.727Z" fill="white"/>
<path d="M855.455 427.727H998.031V570.303H855.455V427.727Z" fill="white"/>
<path d="M998.031 427.727H1140.61V570.303H998.031V427.727Z" fill="white"/>
<path d="M1140.61 427.727H1283.18V570.303H1140.61V427.727Z" fill="white"/>
<path d="M0 570.303H142.576V712.879H0V570.303Z" fill="white"/>
<path d="M142.576 570.303H285.152V712.879H142.576V570.303Z" fill="white"/>
<path d="M285.152 570.303H427.728V712.879H285.152V570.303Z" fill="white"/>
<path d="M427.728 570.303H570.303V712.879H427.728V570.303Z" fill="white"/>
<path d="M570.303 570.303H712.879V712.879H570.303V570.303Z" fill="white"/>
<path d="M712.879 570.303H855.455V712.879H712.879V570.303Z" fill="white"/>
<path d="M855.455 570.303H998.031V712.879H855.455V570.303Z" fill="white"/>
<path d="M998.031 570.303H1140.61V712.879H998.031V570.303Z" fill="white"/>
<path d="M1140.61 570.303H1283.18V712.879H1140.61V570.303Z" fill="white"/>
</g>
</mask>
<g mask="url(#mask0_239_71)">
<path d="M142.075 1.43051e-06V142.576H143.077V1.43051e-06H142.075ZM142.576 142.075H-6.10352e-05V143.076H142.576V142.075ZM284.651 1.43051e-06V142.576H285.652V1.43051e-06H284.651ZM285.152 142.075H142.576V143.076H285.152V142.075ZM427.227 1.43051e-06V142.576H428.228V1.43051e-06H427.227ZM427.728 142.075H285.152V143.076H427.728V142.075ZM569.803 1.43051e-06V142.576H570.804V1.43051e-06H569.803ZM570.303 142.075H427.728V143.076H570.303V142.075ZM712.378 1.43051e-06V142.576H713.38V1.43051e-06H712.378ZM712.879 142.075H570.303V143.076H712.879V142.075ZM854.954 1.43051e-06V142.576H855.956V1.43051e-06H854.954ZM855.455 142.075H712.879V143.076H855.455V142.075ZM997.531 1.43051e-06V142.576H998.531V1.43051e-06H997.531ZM998.031 142.075H855.455V143.076H998.031V142.075ZM1140.1 1.43051e-06V142.576H1141.11V1.43051e-06H1140.1ZM1140.61 142.075H998.031V143.076H1140.61V142.075ZM1283.18 142.075H1140.61V143.076H1283.18V142.075ZM142.075 142.576V285.152H143.077V142.576H142.075ZM142.576 284.651H-6.10352e-05V285.652H142.576V284.651ZM284.651 142.576V285.152H285.652V142.576H284.651ZM285.152 284.651H142.576V285.652H285.152V284.651ZM427.227 142.576V285.152H428.228V142.576H427.227ZM427.728 284.651H285.152V285.652H427.728V284.651ZM569.803 142.576V285.152H570.804V142.576H569.803ZM570.303 284.651H427.728V285.652H570.303V284.651ZM712.378 142.576V285.152H713.38V142.576H712.378ZM712.879 284.651H570.303V285.652H712.879V284.651ZM854.954 142.576V285.152H855.956V142.576H854.954ZM855.455 284.651H712.879V285.652H855.455V284.651ZM997.531 142.576V285.152H998.531V142.576H997.531ZM998.031 284.651H855.455V285.652H998.031V284.651ZM1140.1 142.576V285.152H1141.11V142.576H1140.1ZM1140.61 284.651H998.031V285.652H1140.61V284.651ZM1283.18 284.651H1140.61V285.652H1283.18V284.651ZM142.075 285.152V427.727H143.077V285.152H142.075ZM142.576 427.227H-6.10352e-05V428.228H142.576V427.227ZM284.651 285.152V427.727H285.652V285.152H284.651ZM285.152 427.227H142.576V428.228H285.152V427.227ZM427.227 285.152V427.727H428.228V285.152H427.227ZM427.728 427.227H285.152V428.228H427.728V427.227ZM569.803 285.152V427.727H570.804V285.152H569.803ZM570.303 427.227H427.728V428.228H570.303V427.227ZM712.378 285.152V427.727H713.38V285.152H712.378ZM712.879 427.227H570.303V428.228H712.879V427.227ZM854.954 285.152V427.727H855.956V285.152H854.954ZM855.455 427.227H712.879V428.228H855.455V427.227ZM997.531 285.152V427.727H998.531V285.152H997.531ZM998.031 427.227H855.455V428.228H998.031V427.227ZM1140.1 285.152V427.727H1141.11V285.152H1140.1ZM1140.61 427.227H998.031V428.228H1140.61V427.227ZM1283.18 427.227H1140.61V428.228H1283.18V427.227ZM142.075 427.727V570.303H143.077V427.727H142.075ZM142.576 569.802H-6.10352e-05V570.804H142.576V569.802ZM284.651 427.727V570.303H285.652V427.727H284.651ZM285.152 569.802H142.576V570.804H285.152V569.802ZM427.227 427.727V570.303H428.228V427.727H427.227ZM427.728 569.802H285.152V570.804H427.728V569.802ZM569.803 427.727V570.303H570.804V427.727H569.803ZM570.303 569.802H427.728V570.804H570.303V569.802ZM712.378 427.727V570.303H713.38V427.727H712.378ZM712.879 569.802H570.303V570.804H712.879V569.802ZM854.954 427.727V570.303H855.956V427.727H854.954ZM855.455 569.802H712.879V570.804H855.455V569.802ZM997.531 427.727V570.303H998.531V427.727H997.531ZM998.031 569.802H855.455V570.804H998.031V569.802ZM1140.1 427.727V570.303H1141.11V427.727H1140.1ZM1140.61 569.802H998.031V570.804H1140.61V569.802ZM1283.18 569.802H1140.61V570.804H1283.18V569.802ZM142.075 570.303V712.879H143.077V570.303H142.075ZM284.651 570.303V712.879H285.652V570.303H284.651ZM427.227 570.303V712.879H428.228V570.303H427.227ZM569.803 570.303V712.879H570.804V570.303H569.803ZM712.378 570.303V712.879H713.38V570.303H712.378ZM854.954 570.303V712.879H855.956V570.303H854.954ZM997.531 570.303V712.879H998.531V570.303H997.531ZM1140.1 570.303V712.879H1141.11V570.303H1140.1ZM-6.10352e-05 1.43051e-06V-1.00139H-1.00146V1.43051e-06H-6.10352e-05ZM1283.18 1.43051e-06H1284.18V-1.00139H1283.18V1.43051e-06ZM-6.10352e-05 712.879H-1.00146V713.88H-6.10352e-05V712.879ZM1283.18 712.879V713.88H1284.18V712.879H1283.18ZM-6.10352e-05 1.00139H142.576V-1.00139H-6.10352e-05V1.00139ZM1.00134 142.576V1.43051e-06H-1.00146V142.576H1.00134ZM142.576 1.00139H285.152V-1.00139H142.576V1.00139ZM285.152 1.00139H427.728V-1.00139H285.152V1.00139ZM427.728 1.00139H570.303V-1.00139H427.728V1.00139ZM570.303 1.00139H712.879V-1.00139H570.303V1.00139ZM712.879 1.00139H855.455V-1.00139H712.879V1.00139ZM855.455 1.00139H998.031V-1.00139H855.455V1.00139ZM998.031 1.00139H1140.61V-1.00139H998.031V1.00139ZM1140.61 1.00139H1283.18V-1.00139H1140.61V1.00139ZM1282.18 1.43051e-06V142.576H1284.18V1.43051e-06H1282.18ZM1.00134 285.152V142.576H-1.00146V285.152H1.00134ZM1282.18 142.576V285.152H1284.18V142.576H1282.18ZM1.00134 427.727V285.152H-1.00146V427.727H1.00134ZM1282.18 285.152V427.727H1284.18V285.152H1282.18ZM1.00134 570.303V427.727H-1.00146V570.303H1.00134ZM1282.18 427.727V570.303H1284.18V427.727H1282.18ZM142.576 711.878H-6.10352e-05V713.88H142.576V711.878ZM1.00134 712.879V570.303H-1.00146V712.879H1.00134ZM285.152 711.878H142.576V713.88H285.152V711.878ZM427.728 711.878H285.152V713.88H427.728V711.878ZM570.303 711.878H427.728V713.88H570.303V711.878ZM712.879 711.878H570.303V713.88H712.879V711.878ZM855.455 711.878H712.879V713.88H855.455V711.878ZM998.031 711.878H855.455V713.88H998.031V711.878ZM1140.61 711.878H998.031V713.88H1140.61V711.878ZM1282.18 570.303V712.879H1284.18V570.303H1282.18ZM1283.18 711.878H1140.61V713.88H1283.18V711.878Z" fill="#AC99A0"/>
</g>
</svg>
