<svg width="2807" height="1604" viewBox="0 0 2807 1604" fill="none" xmlns="http://www.w3.org/2000/svg">
<g clip-path="url(#clip0_365_76)">
<mask id="mask0_365_76" style="mask-type:luminance" maskUnits="userSpaceOnUse" x="0" y="0" width="2807" height="1604">
<path d="M2806.24 0H0V1603.57H2806.24V0Z" fill="white"/>
</mask>
<g mask="url(#mask0_365_76)">
<path d="M3018.92 1813.77H-212.682V-210.203H3018.92L3018.92 1813.77ZM-208.505 1809.6H3014.75V-206.027H-208.505V1809.6Z" fill="#f1f1ff"/>
<path d="M3016.84 1506.62H-210.594V1510.8H3016.84V1506.62Z" fill="#f1f1ff"/>
<path d="M3016.84 1405.63H-210.594V1409.81H3016.84V1405.63Z" fill="#f1f1ff"/>
<path d="M3016.84 1304.65H-210.594V1308.82H3016.84V1304.65Z" fill="#f1f1ff"/>
<path d="M3016.84 1203.66H-210.594V1207.83H3016.84V1203.66Z" fill="#f1f1ff"/>
<path d="M3016.84 1102.67H-210.594V1106.84H3016.84V1102.67Z" fill="#f1f1ff"/>
<path d="M3016.84 1001.68H-210.594V1005.85H3016.84V1001.68Z" fill="#f1f1ff"/>
<path d="M3016.84 900.686H-210.594V904.862H3016.84V900.686Z" fill="#f1f1ff"/>
<path d="M3016.84 799.696H-210.594V803.872H3016.84V799.696Z" fill="#f1f1ff"/>
<path d="M3016.84 698.707H-210.594V702.883H3016.84V698.707Z" fill="#f1f1ff"/>
<path d="M3016.84 597.715H-210.594V601.891H3016.84V597.715Z" fill="#f1f1ff"/>
<path d="M3016.84 496.725H-210.594V500.901H3016.84V496.725Z" fill="#f1f1ff"/>
<path d="M3016.84 395.735H-210.594V399.911H3016.84V395.735Z" fill="#f1f1ff"/>
<path d="M3016.84 294.746H-210.594V298.922H3016.84V294.746Z" fill="#f1f1ff"/>
<path d="M3016.84 193.756H-210.594V197.932H3016.84V193.756Z" fill="#f1f1ff"/>
<path d="M3016.84 92.766H-210.594V96.942H3016.84V92.766Z" fill="#f1f1ff"/>
<path d="M2725.52 -208.115H2721.34V1811.68H2725.52V-208.115Z" fill="#f1f1ff"/>
<path d="M2627.72 -208.115H2623.54V1811.68H2627.72V-208.115Z" fill="#f1f1ff"/>
<path d="M2529.92 -208.115H2525.74V1811.68H2529.92V-208.115Z" fill="#f1f1ff"/>
<path d="M2432.12 -208.115H2427.94V1811.68H2432.12V-208.115Z" fill="#f1f1ff"/>
<path d="M2334.32 -208.115H2330.14V1811.68H2334.32V-208.115Z" fill="#f1f1ff"/>
<path d="M2236.52 -208.115H2232.34V1811.68H2236.52V-208.115Z" fill="#f1f1ff"/>
<path d="M2138.72 -208.115H2134.54V1811.68H2138.72V-208.115Z" fill="#f1f1ff"/>
<path d="M2040.92 -208.115H2036.74V1811.68H2040.92V-208.115Z" fill="#f1f1ff"/>
<path d="M1943.12 -208.115H1938.94V1811.68H1943.12V-208.115Z" fill="#f1f1ff"/>
<path d="M1845.31 -208.115H1841.14V1811.68H1845.31V-208.115Z" fill="#f1f1ff"/>
<path d="M1747.51 -208.115H1743.34V1811.68H1747.51V-208.115Z" fill="#f1f1ff"/>
<path d="M1649.71 -208.115H1645.54V1811.68H1649.71V-208.115Z" fill="#f1f1ff"/>
<path d="M1551.91 -208.115H1547.73V1811.68H1551.91V-208.115Z" fill="#f1f1ff"/>
<path d="M1454.11 -208.115H1449.93V1811.68H1454.11V-208.115Z" fill="#f1f1ff"/>
<path d="M1356.31 -208.115H1352.13V1811.68H1356.31V-208.115Z" fill="#f1f1ff"/>
<path d="M1258.51 -208.115H1254.33V1811.68H1258.51V-208.115Z" fill="#f1f1ff"/>
<path d="M1160.71 -208.115H1156.53V1811.68H1160.71V-208.115Z" fill="#f1f1ff"/>
<path d="M1062.91 -208.115H1058.73V1811.68H1062.91V-208.115Z" fill="#f1f1ff"/>
<path d="M965.104 -208.115H960.928V1811.68H965.104V-208.115Z" fill="#f1f1ff"/>
<path d="M867.303 -208.115H863.127V1811.68H867.303V-208.115Z" fill="#f1f1ff"/>
<path d="M769.503 -208.115H765.327V1811.68H769.503V-208.115Z" fill="#f1f1ff"/>
<path d="M671.703 -208.115H667.527V1811.68H671.703V-208.115Z" fill="#f1f1ff"/>
<path d="M573.902 -208.115H569.726V1811.68H573.902V-208.115Z" fill="#f1f1ff"/>
<path d="M476.101 -208.115H471.925V1811.68H476.101V-208.115Z" fill="#f1f1ff"/>
<path d="M378.3 -208.115H374.124V1811.68H378.3V-208.115Z" fill="#f1f1ff"/>
<path d="M280.5 -208.115H276.324V1811.68H280.5V-208.115Z" fill="#f1f1ff"/>
<path d="M182.7 -208.115H178.524V1811.68H182.7V-208.115Z" fill="#f1f1ff"/>
<path d="M84.896 -208.115H80.72V1811.68H84.896V-208.115Z" fill="#f1f1ff"/>
</g>
</g>
<defs>
<clipPath id="clip0_365_76">
<rect width="2807" height="1604" fill="white"/>
</clipPath>
</defs>
</svg>
