<svg width="191" height="191" viewBox="0 0 191 191" fill="none" xmlns="http://www.w3.org/2000/svg">
<rect width="191" height="191" fill="#5315FC"/>
<path d="M79.5123 156.128V140.3C91.9949 142.209 98.7967 142.119 110.688 140.3V156.128L100.89 160.783H88.4197L79.5123 156.128Z" fill="white"/>
<path d="M110.778 139.005C122.866 135.049 142.36 121.863 146.113 111.115C151.462 99.6151 152.844 86.6247 150.04 74.2307C147.235 61.8369 140.408 50.7594 130.651 42.7777C120.895 34.7959 108.778 30.3736 96.2476 30.2209C83.716 30.0682 71.4976 34.1942 61.5557 41.9358C51.6136 49.6776 44.5249 60.5857 41.4282 72.9076C38.3315 85.2295 39.0472 98.1449 43.5941 109.995C49.2046 124.617 68.2855 135.049 79.6484 139.005V117.412C72.9089 113.787 67.5655 107.969 64.4769 100.892C61.3884 93.8155 60.734 85.8904 62.6187 78.3907C64.5036 70.8909 68.8181 64.2516 74.87 59.5396C80.9207 54.8276 88.3567 52.3163 95.9838 52.4092C103.612 52.5021 110.987 55.1939 116.925 60.052C122.862 64.91 127.018 71.6525 128.726 79.1961C130.432 86.7397 129.59 94.6464 126.336 101.646C123.081 108.646 117.602 114.332 110.778 117.792V139.005Z" fill="white"/>
</svg>
